<svg version="1.1" xmlns="http://www.w3.org/2000/svg" viewBox="0 0 1418.0889891416423 908.6085148991102" width="1418.0889891416423" height="908.6085148991102">
  <!-- svg-source:excalidraw -->
  
  <defs>
    <style class="style-fonts">
      @font-face {
        font-family: "Virgil";
        src: url("https://excalidraw.com/Virgil.woff2");
      }
      @font-face {
        font-family: "Cascadia";
        src: url("https://excalidraw.com/Cascadia.woff2");
      }
      @font-face {
        font-family: "Assistant";
        src: url("https://excalidraw.com/Assistant-Regular.woff2");
      }
    </style>
    
  </defs>
  <rect x="0" y="0" width="1418.0889891416423" height="908.6085148991102" fill="#ffffff"></rect><g stroke-linecap="round" transform="translate(12.401644634862379 131.68332816636462) rotate(0 697.8436722533899 239.3639152746252)"><path d="M32 0 C333.81 0, 635.61 0, 1363.69 0 C1385.02 0, 1395.69 10.67, 1395.69 32 C1395.69 183.79, 1395.69 335.58, 1395.69 446.73 C1395.69 468.06, 1385.02 478.73, 1363.69 478.73 C1060.9 478.73, 758.12 478.73, 32 478.73 C10.67 478.73, 0 468.06, 0 446.73 C0 326.73, 0 206.73, 0 32 C0 10.67, 10.67 0, 32 0" stroke="none" stroke-width="0" fill="#a5d8ff"></path><path d="M32 0 C321.39 0, 610.77 0, 1363.69 0 M1363.69 0 C1385.02 0, 1395.69 10.67, 1395.69 32 M1395.69 32 C1395.69 190.13, 1395.69 348.25, 1395.69 446.73 M1395.69 446.73 C1395.69 468.06, 1385.02 478.73, 1363.69 478.73 M1363.69 478.73 C1028.72 478.73, 693.74 478.73, 32 478.73 M32 478.73 C10.67 478.73, 0 468.06, 0 446.73 M0 446.73 C0 351.85, 0 256.96, 0 32 M0 32 C0 10.67, 10.67 0, 32 0" stroke="#1971c2" stroke-width="2.5" fill="none" stroke-dasharray="8 10"></path></g><g stroke-linecap="round" transform="translate(13.202192846483264 10) rotate(0 697.4433981475795 50.43453733211166)"><path d="M25.22 0 C477.9 0, 930.59 0, 1369.67 0 C1386.48 0, 1394.89 8.41, 1394.89 25.22 C1394.89 40.1, 1394.89 54.99, 1394.89 75.65 C1394.89 92.46, 1386.48 100.87, 1369.67 100.87 C941.52 100.87, 513.37 100.87, 25.22 100.87 C8.41 100.87, 0 92.46, 0 75.65 C0 65.2, 0 54.75, 0 25.22 C0 8.41, 8.41 0, 25.22 0" stroke="none" stroke-width="0" fill="#ffc9c9"></path><path d="M25.22 0 C472.22 0, 919.23 0, 1369.67 0 M1369.67 0 C1386.48 0, 1394.89 8.41, 1394.89 25.22 M1394.89 25.22 C1394.89 42.55, 1394.89 59.87, 1394.89 75.65 M1394.89 75.65 C1394.89 92.46, 1386.48 100.87, 1369.67 100.87 M1369.67 100.87 C1038.18 100.87, 706.68 100.87, 25.22 100.87 M25.22 100.87 C8.41 100.87, 0 92.46, 0 75.65 M0 75.65 C0 59.02, 0 42.4, 0 25.22 M0 25.22 C0 8.41, 8.41 0, 25.22 0" stroke="#e03131" stroke-width="2.5" fill="none" stroke-dasharray="8 10"></path></g><g transform="translate(524.3881101212772 39.689566965902486) rotate(0 226.31393432617188 22.5)"><text x="226.31393432617188" y="0" font-family="Virgil, Segoe UI Emoji" font-size="36px" fill="#000000" text-anchor="middle" style="white-space: pre;" direction="ltr" dominant-baseline="text-before-edge">AUTHENTICATED LAYER</text></g><g transform="translate(644.3529950035946 348.5472427320601) rotate(0 95.21996307373047 22.5)"><text x="95.21996307373047" y="0" font-family="Virgil, Segoe UI Emoji" font-size="36px" fill="#000000" text-anchor="middle" style="white-space: pre;" direction="ltr" dominant-baseline="text-before-edge">CORE CDN</text></g><g stroke-linecap="round" transform="translate(11.601096423241632 629.6243157945147) rotate(0 698.2439462757758 61.64221229480313)"><path d="M30.82 0 C454.01 0, 877.2 0, 1365.67 0 C1386.21 0, 1396.49 10.27, 1396.49 30.82 C1396.49 45.86, 1396.49 60.91, 1396.49 92.46 C1396.49 113.01, 1386.21 123.28, 1365.67 123.28 C958.34 123.28, 551.01 123.28, 30.82 123.28 C10.27 123.28, 0 113.01, 0 92.46 C0 72.04, 0 51.62, 0 30.82 C0 10.27, 10.27 0, 30.82 0" stroke="none" stroke-width="0" fill="#ffec99"></path><path d="M30.82 0 C481.47 0, 932.11 0, 1365.67 0 M1365.67 0 C1386.21 0, 1396.49 10.27, 1396.49 30.82 M1396.49 30.82 C1396.49 50.66, 1396.49 70.51, 1396.49 92.46 M1396.49 92.46 C1396.49 113.01, 1386.21 123.28, 1365.67 123.28 M1365.67 123.28 C1060.82 123.28, 755.97 123.28, 30.82 123.28 M30.82 123.28 C10.27 123.28, 0 113.01, 0 92.46 M0 92.46 C0 73.79, 0 55.13, 0 30.82 M0 30.82 C0 10.27, 10.27 0, 30.82 0" stroke="#f08c00" stroke-width="2.5" fill="none" stroke-dasharray="8 10"></path></g><g transform="translate(518.7594492593905 668.7665268470438) rotate(0 217.29592895507812 22.5)"><text x="217.29592895507812" y="0" font-family="Virgil, Segoe UI Emoji" font-size="36px" fill="#000000" text-anchor="middle" style="white-space: pre;" direction="ltr" dominant-baseline="text-before-edge">OPEN RETREIVE LAYER</text></g><g stroke-linecap="round" transform="translate(10 773.7229938862623) rotate(0 92.19916635210545 61.64221229480313)"><path d="M30.82 0 C60.13 0, 89.44 0, 153.58 0 C174.12 0, 184.4 10.27, 184.4 30.82 C184.4 54.76, 184.4 78.69, 184.4 92.46 C184.4 113.01, 174.12 123.28, 153.58 123.28 C104.75 123.28, 55.92 123.28, 30.82 123.28 C10.27 123.28, 0 113.01, 0 92.46 C0 75.92, 0 59.38, 0 30.82 C0 10.27, 10.27 0, 30.82 0" stroke="none" stroke-width="0" fill="#ffec99"></path><path d="M30.82 0 C56.88 0, 82.94 0, 153.58 0 M153.58 0 C174.12 0, 184.4 10.27, 184.4 30.82 M184.4 30.82 C184.4 47.33, 184.4 63.84, 184.4 92.46 M184.4 92.46 C184.4 113.01, 174.12 123.28, 153.58 123.28 M153.58 123.28 C111.24 123.28, 68.91 123.28, 30.82 123.28 M30.82 123.28 C10.27 123.28, 0 113.01, 0 92.46 M0 92.46 C0 78.05, 0 63.65, 0 30.82 M0 30.82 C0 10.27, 10.27 0, 30.82 0" stroke="#f08c00" stroke-width="2.5" fill="none" stroke-dasharray="8 10"></path></g><g stroke-linecap="round" transform="translate(416.54236948766544 772.1218974630207) rotate(0 156.24302328177103 61.64221229480313)"><path d="M30.82 0 C97.47 0, 164.12 0, 281.66 0 C302.21 0, 312.49 10.27, 312.49 30.82 C312.49 47.52, 312.49 64.23, 312.49 92.46 C312.49 113.01, 302.21 123.28, 281.66 123.28 C220.82 123.28, 159.97 123.28, 30.82 123.28 C10.27 123.28, 0 113.01, 0 92.46 C0 69.04, 0 45.62, 0 30.82 C0 10.27, 10.27 0, 30.82 0" stroke="none" stroke-width="0" fill="#ffec99"></path><path d="M30.82 0 C119.52 0, 208.22 0, 281.66 0 M281.66 0 C302.21 0, 312.49 10.27, 312.49 30.82 M312.49 30.82 C312.49 46.52, 312.49 62.21, 312.49 92.46 M312.49 92.46 C312.49 113.01, 302.21 123.28, 281.66 123.28 M281.66 123.28 C195.01 123.28, 108.36 123.28, 30.82 123.28 M30.82 123.28 C10.27 123.28, 0 113.01, 0 92.46 M0 92.46 C0 80.1, 0 67.75, 0 30.82 M0 30.82 C0 10.27, 10.27 0, 30.82 0" stroke="#f08c00" stroke-width="2.5" fill="none" stroke-dasharray="8 10"></path></g><g stroke-linecap="round" transform="translate(214.00367194759798 775.324090309504) rotate(0 92.19916635210544 61.64221229480313)"><path d="M30.82 0 C68.71 0, 106.6 0, 153.58 0 C174.12 0, 184.4 10.27, 184.4 30.82 C184.4 43.66, 184.4 56.49, 184.4 92.46 C184.4 113.01, 174.12 123.28, 153.58 123.28 C127.83 123.28, 102.08 123.28, 30.82 123.28 C10.27 123.28, 0 113.01, 0 92.46 C0 76.94, 0 61.42, 0 30.82 C0 10.27, 10.27 0, 30.82 0" stroke="none" stroke-width="0" fill="#ffec99"></path><path d="M30.82 0 C78.39 0, 125.96 0, 153.58 0 M153.58 0 C174.12 0, 184.4 10.27, 184.4 30.82 M184.4 30.82 C184.4 49.89, 184.4 68.96, 184.4 92.46 M184.4 92.46 C184.4 113.01, 174.12 123.28, 153.58 123.28 M153.58 123.28 C109.71 123.28, 65.84 123.28, 30.82 123.28 M30.82 123.28 C10.27 123.28, 0 113.01, 0 92.46 M0 92.46 C0 69.71, 0 46.95, 0 30.82 M0 30.82 C0 10.27, 10.27 0, 30.82 0" stroke="#f08c00" stroke-width="2.5" fill="none" stroke-dasharray="8 10"></path></g><g transform="translate(518.7594490615977 811.4662748466549) rotate(0 61.7399826049805 22.5)"><text x="61.73998260498047" y="0" font-family="Virgil, Segoe UI Emoji" font-size="36px" fill="#000000" text-anchor="middle" style="white-space: pre;" direction="ltr" dominant-baseline="text-before-edge">IMAGE</text></g><g transform="translate(283.1968221976202 816.4810034551572) rotate(0 22.355995178222656 22.5)"><text x="22.355995178222656" y="0" font-family="Virgil, Segoe UI Emoji" font-size="36px" fill="#000000" text-anchor="middle" style="white-space: pre;" direction="ltr" dominant-baseline="text-before-edge">JS</text></g><g transform="translate(82.31356352284254 812.8652062590022) rotate(0 33.47999572753906 22.5)"><text x="33.47999572753906" y="0" font-family="Virgil, Segoe UI Emoji" font-size="36px" fill="#000000" text-anchor="middle" style="white-space: pre;" direction="ltr" dominant-baseline="text-before-edge">CSS</text></g><g stroke-linecap="round" transform="translate(748.922831948757 772.1218977985371) rotate(0 92.19916635210546 61.64221229480313)"><path d="M30.82 0 C69.91 0, 109.01 0, 153.58 0 C174.12 0, 184.4 10.27, 184.4 30.82 C184.4 43.6, 184.4 56.37, 184.4 92.46 C184.4 113.01, 174.12 123.28, 153.58 123.28 C119.58 123.28, 85.57 123.28, 30.82 123.28 C10.27 123.28, 0 113.01, 0 92.46 C0 75.16, 0 57.86, 0 30.82 C0 10.27, 10.27 0, 30.82 0" stroke="none" stroke-width="0" fill="#ffec99"></path><path d="M30.82 0 C61.09 0, 91.36 0, 153.58 0 M153.58 0 C174.12 0, 184.4 10.27, 184.4 30.82 M184.4 30.82 C184.4 51.14, 184.4 71.47, 184.4 92.46 M184.4 92.46 C184.4 113.01, 174.12 123.28, 153.58 123.28 M153.58 123.28 C112.24 123.28, 70.91 123.28, 30.82 123.28 M30.82 123.28 C10.27 123.28, 0 113.01, 0 92.46 M0 92.46 C0 74.27, 0 56.07, 0 30.82 M0 30.82 C0 10.27, 10.27 0, 30.82 0" stroke="#f08c00" stroke-width="2.5" fill="none" stroke-dasharray="8 10"></path></g><g transform="translate(797.1355960442332 811.2641101712773) rotate(0 49.46398162841797 22.5)"><text x="49.46398162841797" y="0" font-family="Virgil, Segoe UI Emoji" font-size="36px" fill="#000000" text-anchor="middle" style="white-space: pre;" direction="ltr" dominant-baseline="text-before-edge">FONT</text></g><g stroke-linecap="round" transform="translate(953.2155806383464 772.1218978147476) rotate(0 145.71284196488273 61.64221229480313)"><path d="M30.82 0 C121.33 0, 211.84 0, 260.6 0 C281.15 0, 291.43 10.27, 291.43 30.82 C291.43 44.21, 291.43 57.6, 291.43 92.46 C291.43 113.01, 281.15 123.28, 260.6 123.28 C186.53 123.28, 112.45 123.28, 30.82 123.28 C10.27 123.28, 0 113.01, 0 92.46 C0 72.29, 0 52.11, 0 30.82 C0 10.27, 10.27 0, 30.82 0" stroke="none" stroke-width="0" fill="#ffec99"></path><path d="M30.82 0 C78.27 0, 125.72 0, 260.6 0 M260.6 0 C281.15 0, 291.43 10.27, 291.43 30.82 M291.43 30.82 C291.43 52.33, 291.43 73.83, 291.43 92.46 M291.43 92.46 C291.43 113.01, 281.15 123.28, 260.6 123.28 M260.6 123.28 C183.77 123.28, 106.94 123.28, 30.82 123.28 M30.82 123.28 C10.27 123.28, 0 113.01, 0 92.46 M0 92.46 C0 68.03, 0 43.6, 0 30.82 M0 30.82 C0 10.27, 10.27 0, 30.82 0" stroke="#f08c00" stroke-width="2.5" fill="none" stroke-dasharray="8 10"></path></g><g transform="translate(1055.4326602122785 811.4662751983819) rotate(0 58.355979919433594 22.5)"><text x="58.355979919433594" y="0" font-family="Virgil, Segoe UI Emoji" font-size="36px" fill="#000000" text-anchor="middle" style="white-space: pre;" direction="ltr" dominant-baseline="text-before-edge">VIDEO</text></g><g stroke-linecap="round" transform="translate(1262.7806495774394 772.12189711266) rotate(0 72.65416978210135 61.64221229480313)"><path d="M30.82 0 C54.96 0, 79.09 0, 114.49 0 C135.03 0, 145.31 10.27, 145.31 30.82 C145.31 53.3, 145.31 75.78, 145.31 92.46 C145.31 113.01, 135.03 123.28, 114.49 123.28 C92.1 123.28, 69.72 123.28, 30.82 123.28 C10.27 123.28, 0 113.01, 0 92.46 C0 78.73, 0 64.99, 0 30.82 C0 10.27, 10.27 0, 30.82 0" stroke="none" stroke-width="0" fill="#ffec99"></path><path d="M30.82 0 C49.16 0, 67.5 0, 114.49 0 M114.49 0 C135.03 0, 145.31 10.27, 145.31 30.82 M145.31 30.82 C145.31 52.04, 145.31 73.25, 145.31 92.46 M145.31 92.46 C145.31 113.01, 135.03 123.28, 114.49 123.28 M114.49 123.28 C90.25 123.28, 66.01 123.28, 30.82 123.28 M30.82 123.28 C10.27 123.28, 0 113.01, 0 92.46 M0 92.46 C0 72.54, 0 52.62, 0 30.82 M0 30.82 C0 10.27, 10.27 0, 30.82 0" stroke="#f08c00" stroke-width="2.5" fill="none" stroke-dasharray="8 10"></path></g><g transform="translate(1305.6846657429078 811.2641094854) rotate(0 35.33399200439453 22.5)"><text x="35.33399200439453" y="0" font-family="Virgil, Segoe UI Emoji" font-size="36px" fill="#000000" text-anchor="middle" style="white-space: pre;" direction="ltr" dominant-baseline="text-before-edge">XML</text></g></svg>